<svg width="70" height="112" viewBox="0 0 70 112" fill="none" xmlns="http://www.w3.org/2000/svg">
<path d="M23.6779 45.2801C23.6787 45.5423 23.7825 45.7936 23.9669 45.98C24.0587 46.072 24.1679 46.1448 24.288 46.1944C24.4081 46.244 24.5369 46.2694 24.6669 46.269H45.4189C45.6145 46.2694 45.8057 46.2112 45.9679 46.102C46.0207 46.0653 46.0705 46.0246 46.1169 45.98C46.3013 45.7936 46.405 45.5423 46.4059 45.2801V38.0426C47.3939 36.9227 48.4126 35.8308 49.4619 34.7669C50.2579 33.9616 51.0705 33.1734 51.8999 32.4021C52.1952 32.0494 52.4084 31.6355 52.5239 31.1902L55.1729 21.8319C55.3805 21.0355 55.2655 20.1893 54.8529 19.4771C54.4407 18.7661 53.7631 18.2478 52.9689 18.0362C52.1872 17.8289 51.3552 17.9385 50.6539 18.3412L47.3299 14.4585L49.0839 12.9326C49.2261 12.8086 49.3415 12.6569 49.4229 12.4867C49.5035 12.3159 49.5488 12.1305 49.5559 11.9417C49.5639 11.8506 49.5639 11.7589 49.5559 11.6678L49.5449 11.5768L49.5219 11.4698L49.4969 11.3778C49.4413 11.1951 49.3502 11.0252 49.2289 10.8778L47.1839 8.51397C47.0662 8.36787 46.9199 8.24746 46.7539 8.16006C46.6968 8.12995 46.6376 8.10389 46.5769 8.08206C46.4615 8.041 46.341 8.01606 46.2189 8.00803C46.0299 7.98733 45.8388 8.00676 45.6579 8.06503C45.4775 8.12309 45.3114 8.21887 45.1709 8.34602L40.5509 12.3657C40.41 12.4913 40.2963 12.6444 40.2169 12.8156L40.1729 12.9157L40.1309 13.0507C40.1037 13.1516 40.088 13.2552 40.0839 13.3596C40.0574 13.7414 40.1788 14.1187 40.4229 14.4135L42.4689 16.7783C42.517 16.8363 42.5691 16.8907 42.6249 16.9413C42.7098 17.0155 42.8035 17.0789 42.9039 17.1303C43.0715 17.2155 43.2551 17.2646 43.4429 17.2743C43.6332 17.2903 43.8248 17.2672 44.0059 17.2063C44.072 17.1847 44.1362 17.1576 44.1979 17.1253C44.3065 17.0697 44.4073 17.0001 44.4979 16.9183L46.2539 15.3915L49.6169 19.3232C49.5319 19.4478 49.4567 19.5788 49.3919 19.7151C49.3098 19.8831 49.2428 20.0581 49.1919 20.2381L46.9809 27.9375L46.9449 28.0445C46.926 28.0906 46.9033 28.1351 46.8769 28.1774C46.8402 28.2378 46.7976 28.2944 46.7499 28.3464L40.8199 32.5401H40.7869L40.5429 32.5571L39.5529 32.6231C35.9299 32.8621 31.5869 33.149 29.3529 33.263C27.8536 33.2908 26.4239 33.9004 25.3659 34.9629C24.306 36.0307 23.6992 37.4664 23.6719 38.9706L23.6779 45.2801Z" fill="white"/>
<path d="M58.5531 47.9655H16.2671V41.224C16.2777 40.3098 16.4444 39.4042 16.7601 38.5462C16.8791 38.2599 17.0161 37.9814 17.1701 37.7123C17.4681 37.1899 17.827 36.7045 18.2391 36.2664C18.542 36.4674 18.8738 36.6213 19.2231 36.7224C19.4345 36.7834 19.651 36.8246 19.8701 36.8454C19.9841 36.8564 20.0981 36.8614 20.2111 36.8614C20.9631 36.8905 21.6998 36.6433 22.2821 36.1664C22.8936 35.7483 23.3728 35.164 23.6631 34.4825C23.9724 33.7982 24.0428 33.0298 23.8631 32.3007C23.7448 31.5333 23.3613 30.8317 22.7791 30.3179C22.5411 30.0882 22.2774 29.8869 21.9931 29.7179C21.7926 29.5976 21.5826 29.4939 21.3651 29.408C21.1835 29.3359 20.997 29.2768 20.8071 29.231C20.0793 29.0998 19.3296 29.1689 18.6381 29.4309C17.9573 29.7237 17.3749 30.2058 16.9601 30.8198C16.7656 31.1367 16.6159 31.4789 16.5151 31.8367C16.4104 32.2156 16.3612 32.6077 16.3691 33.0006C16.3726 33.5113 16.4745 34.0165 16.6691 34.4886C16.3743 34.7797 16.0987 35.0896 15.8441 35.4165C15.3349 36.073 14.9152 36.7943 14.5961 37.5613C14.1225 38.7256 13.8882 39.9733 13.9071 41.23V47.9715H11.4381C10.9166 47.9722 10.4021 48.0914 9.93336 48.32C9.46467 48.5487 9.05403 48.8808 8.73247 49.2913C8.4109 49.7019 8.18679 50.1801 8.07707 50.6898C7.96735 51.1996 7.97487 51.7277 8.09907 52.2342L20.0711 101.371C20.2527 102.12 20.6806 102.786 21.2861 103.263C21.8915 103.739 22.6395 103.999 23.4101 104H46.5851C47.3557 103.999 48.1038 103.74 48.7093 103.263C49.3148 102.786 49.7426 102.12 49.9241 101.371L61.8971 52.2342C62.0222 51.7269 62.0303 51.1978 61.9208 50.687C61.8112 50.1761 61.5868 49.6969 61.2646 49.2856C60.9424 48.8743 60.5308 48.5417 60.061 48.313C59.5912 48.0842 59.0756 47.9654 58.5531 47.9655Z" fill="white"/>
<path d="M29.9848 29.5628C30.6351 30.2158 31.4083 30.7337 32.2598 31.0866C33.1101 31.4398 34.022 31.6213 34.9427 31.6206C36.3294 31.6185 37.6841 31.2044 38.8348 30.4307C39.9886 29.6562 40.8868 28.5569 41.4158 27.2719C41.9445 25.9854 42.0812 24.5713 41.8088 23.2072C41.5391 21.8442 40.8717 20.5917 39.8908 19.6076C38.9121 18.6245 37.6631 17.9548 36.3027 17.6837C34.9433 17.4116 33.5337 17.5508 32.2538 18.0836C30.9725 18.6181 29.8782 19.52 29.1087 20.6755C28.338 21.833 27.9267 23.1925 27.9268 24.5831C27.9266 25.5076 28.1077 26.4231 28.4598 27.2779C28.8125 28.1326 29.3308 28.9091 29.9848 29.5628Z" fill="white"/>
</svg>
