<svg width="82" height="90" viewBox="0 0 82 90" fill="none" xmlns="http://www.w3.org/2000/svg">
<path d="M34.5012 53.572C39.302 53.8732 45.302 54.2745 48.302 54.4757C50.2688 54.512 52.1457 55.3194 53.5266 56.7273C54.9094 58.1343 55.6887 60.0298 55.6985 62.0067V82H26.0988V60.7009L19.4992 48.0425C19.1965 47.5146 18.9914 46.9357 18.8996 46.3343C18.8645 45.9075 18.8781 45.4798 18.9387 45.0589C18.9758 44.8116 19.0285 44.5663 19.0988 44.325L22.4992 34.1773C22.6555 33.6749 22.9152 33.2109 23.259 32.8125C23.6027 32.4152 24.0246 32.0934 24.4992 31.8667C24.9133 31.6636 25.3586 31.5371 25.8137 31.4919C25.9524 31.4782 26.093 31.4723 26.2336 31.4733L28.8156 23.693C28.1945 23.3692 27.6203 22.9689 27.1047 22.5049C26.6731 22.1144 26.2805 21.6788 25.9387 21.2039C25.8059 21.0195 25.6789 20.8281 25.5598 20.6319C24.7746 19.3319 24.3586 17.8397 24.3586 16.3189C24.3586 14.1124 25.2317 11.9961 26.7844 10.4361C28.3371 8.87614 30.4426 8 32.6379 8C34.8352 8 36.9406 8.87614 38.4934 10.4361C40.0461 11.9961 40.9192 14.1124 40.9192 16.3189C40.9192 17.4188 40.7024 18.497 40.2922 19.4938C39.8801 20.4965 39.2727 21.4188 38.4934 22.2007C36.9406 23.7607 34.8352 24.6369 32.6379 24.6369C32.2238 24.6349 31.8117 24.6006 31.4016 24.5368L28.8098 32.3622C29.2629 32.7576 29.634 33.2393 29.9016 33.7799C30.3645 34.7532 30.4367 35.8687 30.1008 36.894L27.302 45.2325L32.802 53.471L34.5012 53.572Z" fill="white"/>
<path d="M36.5305 32.4858C37.2785 32.1149 38.0754 31.8402 38.9016 31.6705C40.8215 31.3654 42.7863 31.5734 44.6008 32.2729C46.3957 33.0087 47.9289 34.2685 49.0012 35.8903C50.1125 37.516 50.7063 39.4429 50.7024 41.416C50.7063 41.6946 50.6985 41.9732 50.6789 42.2509C50.6692 42.4059 50.6535 42.56 50.636 42.714C50.6086 42.9544 50.5715 43.1938 50.5266 43.4312C50.4914 43.6098 50.4524 43.7873 50.4094 43.9639C50.302 44.3946 50.1652 44.8195 50.0012 45.2335C49.5168 46.4324 48.8039 47.5244 47.9016 48.4486C46.9817 49.3542 45.8957 50.0714 44.7024 50.558C44.1711 50.7484 43.6281 50.9005 43.0774 51.0143C42.3606 51.1614 41.634 51.2448 40.9016 51.2615C38.9719 51.2507 37.0891 50.6562 35.5012 49.5534C33.9113 48.4231 32.636 46.9014 31.802 45.1334C31.007 43.335 30.7981 41.3316 31.2024 39.4066C31.3684 38.5923 31.634 37.8074 31.9914 37.0676C32.4719 36.0767 33.1145 35.1682 33.9016 34.3833C34.6731 33.6053 35.5617 32.9656 36.5305 32.4858Z" fill="white"/>
<path d="M16.2004 52.5674C17.4797 53.6525 19.0402 54.3491 20.7004 54.5767L17.7004 48.8499C17.2121 48.0935 16.9035 47.234 16.8 46.3382C16.7024 45.4229 16.8039 44.4967 17.1008 43.6254L18.5012 39.6068C16.9192 40.2945 15.6164 41.4984 14.8 43.023C13.9504 44.5487 13.632 46.3176 13.8996 48.0464C14.0285 48.8048 14.259 49.5377 14.5813 50.2264C14.9836 51.0878 15.5305 51.8796 16.2004 52.5674Z" fill="white"/>
<path d="M71.1027 58.4953C71.6574 59.0977 72.1281 59.7737 72.5012 60.5046C72.8117 61.2719 72.9797 62.0882 73.0012 62.9153V75.7748C73.0051 75.9072 72.9797 76.0387 72.9289 76.1604C72.8762 76.281 72.8 76.39 72.7024 76.4783C72.6145 76.5764 72.5051 76.6549 72.384 76.7069C72.3352 76.7284 72.2844 76.7451 72.2317 76.7569C72.1887 76.7667 72.1457 76.7736 72.1008 76.7765L72.0012 76.7795H57.9016V61.8105C57.8938 59.9483 57.3371 58.1303 56.302 56.586H66.7024C67.5246 56.6076 68.3391 56.7774 69.1027 57.0884C69.5559 57.2581 69.9797 57.4946 70.3625 57.7879C70.632 57.9959 70.8801 58.2324 71.1027 58.4953Z" fill="white"/>
<path d="M65.9016 52.2662C66.634 51.547 67.216 50.6876 67.6106 49.7378C67.7805 49.3287 67.9152 48.9058 68.0129 48.4751C68.1399 47.9071 68.2043 47.3253 68.2024 46.7405C68.1848 45.2051 67.7336 43.7069 66.9016 42.4206C66.0324 41.1363 64.8195 40.1268 63.4016 39.5067C62.8645 39.2869 62.3078 39.13 61.7414 39.0368C61.1945 38.9465 60.6379 38.9161 60.0852 38.9465C59.6887 38.9681 59.2922 39.0211 58.9016 39.1044C57.3899 39.3949 55.9973 40.1287 54.9016 41.2148C54.7531 41.3669 54.6106 41.5249 54.4758 41.6887C54.3371 41.8545 54.2063 42.0262 54.0813 42.2028C53.4485 43.1064 53.011 44.1386 52.802 45.2335C52.5324 46.7493 52.6692 48.3103 53.2024 49.7545C53.8567 51.1536 54.8547 52.3633 56.1008 53.2708C57.3684 54.1382 58.8684 54.5934 60.4016 54.5767C61.425 54.5816 62.4406 54.3795 63.386 53.9831C63.8371 53.7938 64.2668 53.5613 64.6731 53.2905C65.1164 52.9942 65.5285 52.6508 65.9016 52.2662Z" fill="white"/>
<path d="M12.9016 57.0884C13.6574 56.7577 14.4758 56.587 15.3 56.586H21.8L24.1008 60.9059V76.7795H10.0012C9.86056 76.7952 9.71798 76.7589 9.6008 76.6794C9.55197 76.6293 9.50119 76.6038 9.4504 76.5793C9.39962 76.5548 9.3508 76.5293 9.30001 76.4783C9.2004 76.3782 9.1008 76.2771 9.1008 76.1771C9.02072 76.0593 8.98556 75.9171 9.00119 75.7748V62.9153C9.0129 62.0872 9.18087 61.268 9.50119 60.5046C9.7883 59.7246 10.2707 59.033 10.9016 58.4953C11.4738 57.9057 12.1535 57.4278 12.9016 57.0884Z" fill="white"/>
</svg>
