<svg width="80" height="114" viewBox="0 0 80 114" fill="none" xmlns="http://www.w3.org/2000/svg">
<path d="M28.5141 45.7088C28.5141 45.9752 28.6196 46.2298 28.8071 46.4189C28.9946 46.6069 29.2485 46.7117 29.5141 46.7117H50.5571C50.7582 46.7117 50.9516 46.6519 51.1137 46.5423C51.1664 46.506 51.2172 46.4649 51.264 46.4189C51.4515 46.2298 51.557 45.9752 51.557 45.7088V38.3882C52.5588 37.2551 53.5919 36.1494 54.6563 35.0751C55.4629 34.2603 56.287 33.4621 57.1287 32.6826C57.4275 32.3261 57.6443 31.9069 57.7615 31.4564L60.4468 21.991C60.6577 21.185 60.5405 20.3281 60.1226 19.6083C59.7027 18.8875 59.0153 18.3635 58.2126 18.151C57.4197 17.9414 56.576 18.0521 55.8652 18.4595L52.4944 14.5323L54.2735 12.9889C54.418 12.8635 54.5333 12.7098 54.6172 12.5374C54.6993 12.365 54.7442 12.177 54.752 11.986C54.7598 11.894 54.7598 11.8009 54.752 11.7089L54.7403 11.6168L54.7168 11.5091L54.6915 11.416C54.6348 11.2309 54.543 11.0596 54.42 10.9117L52.346 8.52012C52.2268 8.37223 52.0784 8.24982 51.9105 8.16167C51.8519 8.13131 51.7913 8.10487 51.7308 8.08333C51.6136 8.04219 51.4925 8.01673 51.3675 8.00792C51.1761 7.98735 50.9828 8.00694 50.7992 8.0657C50.6157 8.12446 50.4477 8.22141 50.3051 8.34971L45.62 12.416C45.4774 12.5433 45.3622 12.698 45.2822 12.8714L45.2372 12.9761L45.1943 13.1123C45.1669 13.2141 45.1513 13.3189 45.1474 13.4247C45.1201 13.8115 45.2431 14.1944 45.4911 14.4912L47.5651 16.8828C47.614 16.9415 47.6667 16.9964 47.7233 17.0473C47.8093 17.1227 47.905 17.1873 48.0065 17.2392C48.1764 17.3254 48.3639 17.3744 48.5533 17.3842C48.7467 17.4008 48.94 17.3773 49.1236 17.3156C49.192 17.2931 49.2564 17.2657 49.3189 17.2334C49.4283 17.1766 49.5298 17.107 49.6196 17.0248L51.0687 15.7673L51.4007 15.4803L54.8106 19.4565C54.7247 19.5828 54.6485 19.716 54.5821 19.8531C54.5001 20.0235 54.4337 20.2008 54.3829 20.3829L52.1409 28.1736L52.1038 28.2823C52.0843 28.3284 52.0628 28.3734 52.0354 28.4165C51.9983 28.4772 51.9554 28.534 51.9065 28.5869L45.8934 32.8295H45.8602L45.6122 32.8471L44.6084 32.9137C40.9349 33.1556 36.531 33.4455 34.2617 33.561C32.7423 33.5894 31.2932 34.2064 30.2191 35.2837C29.1449 36.361 28.5298 37.8143 28.5005 39.3372L28.5141 45.7088Z" fill="white"/>
<path d="M20.5989 71.2894C19.513 71.3011 18.435 71.4705 17.3999 71.7908C15.5544 63.9276 13.828 56.657 13.037 53.76C12.7988 52.8884 12.6465 52.4125 12.5996 52.436C12.5664 52.2068 12.5586 51.9757 12.5722 51.7455C12.5879 51.5046 12.6308 51.2656 12.6992 51.0316C12.871 50.5674 13.1073 50.1286 13.4003 49.7281C13.7323 49.2815 14.1834 48.9348 14.699 48.7252C15.1716 48.5205 15.6833 48.4177 16.1989 48.4246H18.599V41.6054C18.5795 40.3332 18.8178 39.0708 19.2982 37.8946C19.6224 37.117 20.0481 36.3874 20.5637 35.7254C20.8215 35.3944 21.1008 35.081 21.3996 34.7862C21.2043 34.3083 21.1008 33.798 21.0988 33.2819C21.091 32.8823 21.1418 32.4857 21.2472 32.1047C21.3488 31.7443 21.4992 31.3976 21.6984 31.0754C22.1202 30.4536 22.71 29.9658 23.3994 29.6711C24.1005 29.4066 24.8602 29.3371 25.5984 29.4703C25.7917 29.5173 25.9812 29.577 26.1648 29.6495C26.3854 29.7367 26.5983 29.8415 26.8014 29.9629C27.0885 30.1343 27.356 30.339 27.5982 30.574C28.188 31.0921 28.5766 31.8021 28.6977 32.5797C28.8813 33.3162 28.811 34.0938 28.4985 34.7862C28.2036 35.4766 27.7173 36.0691 27.0983 36.4903C26.5065 36.9731 25.7605 37.2218 24.9988 37.1924C24.8836 37.1924 24.7684 37.1875 24.6532 37.1768C24.4305 37.1552 24.2099 37.1141 23.997 37.0524C23.6435 36.9505 23.3076 36.7958 22.999 36.5911C22.5811 37.0348 22.2159 37.5254 21.9151 38.0533C21.7589 38.3255 21.6202 38.6076 21.4992 38.8975C21.1789 39.7652 21.0109 40.6809 20.9992 41.6054V48.4246H63.6945C64.214 48.3776 64.7335 48.4823 65.1944 48.7252C65.6865 48.9769 66.126 49.3167 66.4951 49.7281C66.8603 50.0777 67.1044 50.5341 67.1942 51.0316C67.3797 51.4762 67.4149 51.9698 67.2938 52.436C67.2938 52.436 66.5927 55.3818 65.5303 59.7899L64.1886 65.3438L62.595 71.8917L62.2806 71.7967L62.1341 71.7555L61.8705 71.688C61.6166 71.6263 61.3608 71.5734 61.103 71.5313C60.5718 71.4431 60.0347 71.3961 59.4957 71.3902C58.8571 71.4069 58.2224 71.4745 57.5955 71.59C57.2303 71.6654 56.8709 71.7614 56.5194 71.877C56.1073 72.0111 55.707 72.1718 55.3183 72.3588C54.3126 72.8426 53.3908 73.4968 52.5959 74.2979C52.301 74.5731 52.0335 74.8757 51.7952 75.2009C51.682 73.0512 50.9906 70.9721 49.7954 69.1838C48.526 67.1996 46.6746 65.6591 44.4971 64.7708C43.0734 64.1646 41.5423 63.8571 39.9975 63.8689C39.2241 63.8356 38.4527 63.9031 37.6969 64.0686C35.41 64.48 33.3106 65.6023 31.6975 67.278C30.096 68.9879 28.9907 71.1023 28.4985 73.3959C28.3755 73.9561 28.3091 74.5271 28.2974 75.1C28.147 74.9492 28.022 74.7993 27.897 74.6495L27.7798 74.5085C27.692 74.4047 27.6002 74.3009 27.4986 74.198C26.5534 73.2461 25.4285 72.5008 24.1981 72.0043C23.6513 71.783 23.083 71.6106 22.4991 71.4901C21.8722 71.3736 21.2355 71.307 20.5989 71.2894Z" fill="white"/>
<path d="M30.1995 82.2208C30.1078 83.1218 29.8714 84.0023 29.4984 84.8279C29.1098 85.8209 28.5591 86.7366 27.8755 87.5406C27.4361 88.0568 26.942 88.5259 26.3991 88.9401H26.5983C27.5513 88.1449 28.6372 87.5397 29.7953 87.1469C30.6624 86.8541 31.5725 86.6798 32.4982 86.6338C32.9981 86.6338 34.0976 86.6338 35.3983 86.5329C34.6913 86.244 34.0215 85.8738 33.3985 85.4302C32.1408 84.5703 31.0569 83.4822 30.1995 82.2208Z" fill="white"/>
<path d="M53.4962 88.9401H53.6954C52.3108 87.9177 51.2386 86.529 50.5961 84.9287C50.1626 84.1208 49.8911 83.2345 49.7954 82.3217C49.3853 82.9338 48.9166 83.5048 48.3952 84.0267C48.2233 84.1991 48.0475 84.3666 47.8679 84.5272C47.3816 84.9601 46.8601 85.3508 46.3094 85.6946C45.7958 86.0158 45.2568 86.2969 44.6963 86.5339L45.0478 86.5251L45.5634 86.5221L45.9676 86.528C46.5125 86.5427 47.0554 86.5779 47.5964 86.6338C48.6666 86.6955 49.7134 86.9256 50.7016 87.3095C51.7073 87.6993 52.6506 88.2477 53.4962 88.9401Z" fill="white"/>
<path d="M46.9968 82.7223C46.077 83.6262 44.9912 84.3421 43.7979 84.8279C42.5754 85.2637 41.2923 85.5007 39.9975 85.53C38.068 85.5193 36.1853 84.9258 34.5976 83.825C33.9844 83.4078 33.42 82.9289 32.9102 82.3981C32.0783 81.5294 31.3967 80.5207 30.8987 79.413C30.1038 77.6179 29.8949 75.6181 30.2991 73.6966C30.6878 71.7947 31.6252 70.0505 32.9981 68.6823C33.7461 67.9282 34.6073 67.3044 35.5448 66.8304C36.3162 66.4396 37.1403 66.1507 37.9977 65.9745C39.9174 65.6699 41.8821 65.8775 43.6964 66.5758C45.4911 67.3103 47.0242 68.5678 48.0964 70.1866C49.2076 71.8094 49.8013 73.7328 49.7974 75.7023C49.8169 77.0058 49.5786 78.3015 49.0963 79.5129C48.6119 80.7097 47.8991 81.7997 46.9968 82.7223Z" fill="white"/>
<path d="M32.5978 88.6395C30.6292 88.6747 28.7524 89.4807 27.3697 90.8871C26.6061 91.6617 26.028 92.5843 25.6609 93.5871C25.3601 94.4039 25.2019 95.2745 25.198 96.1609V110H54.795V96.1609C54.7911 95.2687 54.6309 94.3931 54.3282 93.5715C53.9591 92.5745 53.383 91.6578 52.6252 90.8871C51.2425 89.4807 49.3638 88.6747 47.3952 88.6395C45.5966 88.5386 34.3964 88.5386 32.5978 88.6395Z" fill="white"/>
<path d="M70.0963 92.8516C70.6509 93.453 71.1216 94.1277 71.4946 94.8573C71.8618 95.6046 72.0336 96.4321 71.9946 97.2636V104.083C71.9985 104.215 71.975 104.346 71.9223 104.468L71.8813 104.55C71.8618 104.585 71.8403 104.62 71.8149 104.653C71.7797 104.701 71.7407 104.745 71.6958 104.785C71.6079 104.883 71.4985 104.961 71.3774 105.013C71.2583 105.065 71.1275 105.09 70.9947 105.086H56.8963V96.1609C56.9354 94.2952 56.3749 92.4668 55.2969 90.9458H65.6963C66.5185 90.9674 67.3329 91.1368 68.0965 91.4473C68.8718 91.7362 69.5592 92.219 70.0963 92.8516Z" fill="white"/>
<path d="M66.4345 84.6858C66.5322 84.4978 66.622 84.3059 66.704 84.11C67.0985 83.163 67.2997 82.1444 67.2958 81.1181C67.2899 80.6695 67.2489 80.2249 67.1708 79.7881C67.1259 79.5315 67.0673 79.2769 66.997 79.0262C66.7782 78.2437 66.4404 77.4945 65.9951 76.806C65.126 75.5241 63.9133 74.5163 62.4954 73.8974C61.0698 73.3147 59.5016 73.1746 57.9958 73.4958C57.4139 73.6075 56.8475 73.7847 56.3104 74.0227C55.4551 74.4027 54.67 74.9365 53.9962 75.6024C52.9162 76.7012 52.1858 78.0978 51.8968 79.6138C51.6273 81.1269 51.764 82.685 52.2971 84.1266C52.9143 85.5477 53.9181 86.764 55.1973 87.6366C55.5742 87.8942 55.9706 88.1155 56.3847 88.2987C56.6581 88.4211 56.9393 88.5259 57.2244 88.613C57.9568 88.8373 58.7223 88.9489 59.4957 88.9401C60.519 88.945 61.5346 88.7433 62.4798 88.3476C63.425 87.951 64.2804 87.3683 64.9952 86.6338C65.3799 86.2567 65.7217 85.8415 66.0185 85.3949C66.1689 85.1667 66.3095 84.9297 66.4345 84.6858Z" fill="white"/>
<path d="M9.90061 92.8516C10.5002 92.2944 11.1739 91.8223 11.9004 91.4473C12.664 91.1368 13.4765 90.9674 14.3006 90.9458H24.7C23.9716 92.0309 23.4794 93.2512 23.249 94.5273C23.1514 95.064 23.1006 95.6105 23.0986 96.1609V105.086H9.0003C8.93976 105.088 8.87922 105.084 8.82063 105.074C8.75228 105.062 8.68392 105.042 8.61752 105.013C8.49644 104.961 8.38903 104.883 8.30115 104.785C8.2035 104.697 8.12538 104.588 8.0746 104.468C8.02187 104.346 7.99649 104.215 8.00039 104.083V97.2636C8.00625 96.8444 8.05312 96.4282 8.13905 96.0198C8.19178 95.7672 8.26013 95.5184 8.34411 95.2736C8.39098 95.1335 8.44371 94.9945 8.50035 94.8573C8.69173 94.3432 8.96515 93.8682 9.31082 93.45C9.48854 93.2346 9.68578 93.0338 9.90061 92.8516Z" fill="white"/>
<path d="M27.6978 84.1266C27.9556 83.495 28.1255 82.8359 28.2075 82.166C28.313 81.3198 28.2778 80.457 28.0982 79.6138C27.8091 78.0978 27.0787 76.7022 25.9988 75.6024C25.4734 75.0834 24.8797 74.6446 24.2372 74.296C23.54 73.9179 22.7862 73.6476 21.9991 73.4968C20.4895 73.2255 18.9369 73.3646 17.4995 73.8974C16.6578 74.2646 15.8883 74.769 15.2204 75.386C14.7634 75.8091 14.3533 76.285 13.9998 76.806C13.7538 77.1684 13.5409 77.5503 13.3632 77.946C12.916 78.9381 12.6875 80.0202 12.6992 81.1181C12.6914 81.7047 12.7519 82.2894 12.8789 82.8594C12.9745 83.2883 13.1073 83.7085 13.2773 84.1159C13.5038 84.6574 13.7909 85.1687 14.1346 85.6407C14.3924 85.9952 14.6814 86.3282 14.9998 86.6338C16.0661 87.6797 17.3902 88.4015 18.8197 88.7335C19.3665 88.8598 19.929 88.9303 20.4993 88.9401C21.1086 88.9284 21.712 88.8491 22.2999 88.7051C22.583 88.6365 22.8623 88.5523 23.1357 88.4534C23.7158 88.2448 24.2743 87.9716 24.7996 87.6366C26.1023 86.7944 27.1158 85.5682 27.6978 84.1266Z" fill="white"/>
<path d="M37.2204 31.3506C36.3572 30.9942 35.5741 30.4702 34.914 29.8091C34.25 29.1471 33.7246 28.3597 33.3672 27.493C33.0098 26.6292 32.8263 25.7027 32.8263 24.7675C32.8263 23.3592 33.2442 21.9832 34.0254 20.8139C34.8085 19.6435 35.9178 18.7318 37.2145 18.1931C38.5132 17.6555 39.9428 17.5154 41.3196 17.7916C42.6984 18.0648 43.9639 18.7425 44.958 19.7385C45.952 20.7326 46.6297 21.9998 46.9031 23.3807C47.1804 24.7606 47.0398 26.1914 46.5047 27.492C45.9676 28.7936 45.0556 29.9051 43.8877 30.6876C42.7199 31.4701 41.347 31.8893 39.9408 31.8903C39.0073 31.8922 38.0836 31.7081 37.2204 31.3506Z" fill="white"/>
</svg>
