<svg width="87" height="88" viewBox="0 0 87 88" fill="none" xmlns="http://www.w3.org/2000/svg">
<mask id="mask0_55510_68090" style="mask-type:alpha" maskUnits="userSpaceOnUse" x="17" y="0" width="53" height="52">
<rect x="17.5" width="52" height="52" fill="#D9D9D9"/>
</mask>
<g mask="url(#mask0_55510_68090)">
<path d="M60.5615 49.0758L20.424 8.93828C20.0267 8.54106 19.8281 8.05356 19.8281 7.47578C19.8281 6.898 20.0448 6.39245 20.4781 5.95911C20.8753 5.56189 21.3809 5.36328 21.9948 5.36328C22.6087 5.36328 23.1142 5.56189 23.5115 5.95911L63.649 46.0966C64.0462 46.4938 64.2448 46.9813 64.2448 47.5591C64.2448 48.1369 64.0281 48.6425 63.5948 49.0758C63.1976 49.473 62.692 49.6716 62.0781 49.6716C61.4642 49.6716 60.9587 49.473 60.5615 49.0758ZM56.5531 32.8799L32.3406 8.66745H52.2198C53.4115 8.66745 54.4316 9.09175 55.2802 9.94036C56.1288 10.789 56.5531 11.8091 56.5531 13.0008V22.7508L63.3781 15.9258C63.7031 15.6008 64.0913 15.5195 64.5427 15.682C64.9941 15.8445 65.2198 16.1786 65.2198 16.6841V35.3174C65.2198 35.823 64.9941 36.157 64.5427 36.3195C64.0913 36.482 63.7031 36.4008 63.3781 36.0758L56.5531 29.2508V32.8799ZM26.2198 8.66745L56.5531 39.0008C56.517 40.1563 56.0656 41.1674 55.199 42.0341C54.3323 42.9008 53.3212 43.3341 52.1656 43.3341H26.1656C24.974 43.3341 23.9538 42.9098 23.1052 42.0612C22.2566 41.2126 21.8323 40.1925 21.8323 39.0008V13.0008C21.8323 11.8452 22.2747 10.8341 23.1594 9.96745C24.0441 9.10078 25.0642 8.66745 26.2198 8.66745Z" fill="white" fill-opacity="0.6"/>
</g>
<path d="M8.40625 75.3828H9.90625C9.82812 76.1016 9.6224 76.7448 9.28906 77.3125C8.95573 77.8802 8.48438 78.3307 7.875 78.6641C7.26562 78.9922 6.50521 79.1562 5.59375 79.1562C4.92708 79.1562 4.32031 79.0312 3.77344 78.7812C3.23177 78.5312 2.76562 78.1771 2.375 77.7188C1.98438 77.2552 1.68229 76.7005 1.46875 76.0547C1.26042 75.4036 1.15625 74.6797 1.15625 73.8828V72.75C1.15625 71.9531 1.26042 71.2318 1.46875 70.5859C1.68229 69.9349 1.98698 69.3776 2.38281 68.9141C2.78385 68.4505 3.26562 68.0938 3.82812 67.8438C4.39062 67.5938 5.02344 67.4688 5.72656 67.4688C6.58594 67.4688 7.3125 67.6302 7.90625 67.9531C8.5 68.276 8.96094 68.724 9.28906 69.2969C9.6224 69.8646 9.82812 70.5234 9.90625 71.2734H8.40625C8.33333 70.7422 8.19792 70.2865 8 69.9062C7.80208 69.5208 7.52083 69.224 7.15625 69.0156C6.79167 68.8073 6.3151 68.7031 5.72656 68.7031C5.22135 68.7031 4.77604 68.7995 4.39062 68.9922C4.01042 69.1849 3.6901 69.4583 3.42969 69.8125C3.17448 70.1667 2.98177 70.5911 2.85156 71.0859C2.72135 71.5807 2.65625 72.1302 2.65625 72.7344V73.8828C2.65625 74.4401 2.71354 74.9635 2.82812 75.4531C2.94792 75.9427 3.1276 76.3724 3.36719 76.7422C3.60677 77.112 3.91146 77.4036 4.28125 77.6172C4.65104 77.8255 5.08854 77.9297 5.59375 77.9297C6.23438 77.9297 6.74479 77.8281 7.125 77.625C7.50521 77.4219 7.79167 77.1302 7.98438 76.75C8.18229 76.3698 8.32292 75.9141 8.40625 75.3828ZM17.2266 77.5547V73.2031C17.2266 72.8698 17.1589 72.5807 17.0234 72.3359C16.8932 72.0859 16.6953 71.8932 16.4297 71.7578C16.1641 71.6224 15.8359 71.5547 15.4453 71.5547C15.0807 71.5547 14.7604 71.6172 14.4844 71.7422C14.2135 71.8672 14 72.0312 13.8438 72.2344C13.6927 72.4375 13.6172 72.6562 13.6172 72.8906H12.1719C12.1719 72.5885 12.25 72.2891 12.4062 71.9922C12.5625 71.6953 12.7865 71.4271 13.0781 71.1875C13.375 70.9427 13.7292 70.75 14.1406 70.6094C14.5573 70.4635 15.0208 70.3906 15.5312 70.3906C16.1458 70.3906 16.6875 70.4948 17.1562 70.7031C17.6302 70.9115 18 71.2266 18.2656 71.6484C18.5365 72.0651 18.6719 72.5885 18.6719 73.2188V77.1562C18.6719 77.4375 18.6953 77.737 18.7422 78.0547C18.7943 78.3724 18.8698 78.6458 18.9688 78.875V79H17.4609C17.388 78.8333 17.3307 78.612 17.2891 78.3359C17.2474 78.0547 17.2266 77.7943 17.2266 77.5547ZM17.4766 73.875L17.4922 74.8906H16.0312C15.6198 74.8906 15.2526 74.9245 14.9297 74.9922C14.6068 75.0547 14.3359 75.151 14.1172 75.2812C13.8984 75.4115 13.7318 75.5755 13.6172 75.7734C13.5026 75.9661 13.4453 76.1927 13.4453 76.4531C13.4453 76.7188 13.5052 76.9609 13.625 77.1797C13.7448 77.3984 13.9245 77.5729 14.1641 77.7031C14.4089 77.8281 14.7083 77.8906 15.0625 77.8906C15.5052 77.8906 15.8958 77.7969 16.2344 77.6094C16.5729 77.4219 16.8411 77.1927 17.0391 76.9219C17.2422 76.651 17.3516 76.388 17.3672 76.1328L17.9844 76.8281C17.9479 77.0469 17.849 77.2891 17.6875 77.5547C17.526 77.8203 17.3099 78.0755 17.0391 78.3203C16.7734 78.5599 16.4557 78.7604 16.0859 78.9219C15.7214 79.0781 15.3099 79.1562 14.8516 79.1562C14.2786 79.1562 13.776 79.0443 13.3438 78.8203C12.9167 78.5964 12.5833 78.2969 12.3438 77.9219C12.1094 77.5417 11.9922 77.1172 11.9922 76.6484C11.9922 76.1953 12.0807 75.7969 12.2578 75.4531C12.4349 75.1042 12.6901 74.8151 13.0234 74.5859C13.3568 74.3516 13.7578 74.1745 14.2266 74.0547C14.6953 73.9349 15.2188 73.875 15.7969 73.875H17.4766ZM22.8828 72.2266V79H21.4297V70.5469H22.8047L22.8828 72.2266ZM22.5859 74.4531L21.9141 74.4297C21.9193 73.8516 21.9948 73.3177 22.1406 72.8281C22.2865 72.3333 22.5026 71.9036 22.7891 71.5391C23.0755 71.1745 23.4323 70.8932 23.8594 70.6953C24.2865 70.4922 24.7812 70.3906 25.3438 70.3906C25.7396 70.3906 26.1042 70.4479 26.4375 70.5625C26.7708 70.6719 27.0599 70.8464 27.3047 71.0859C27.5495 71.3255 27.7396 71.6328 27.875 72.0078C28.0104 72.3828 28.0781 72.8359 28.0781 73.3672V79H26.6328V73.4375C26.6328 72.9948 26.5573 72.6406 26.4062 72.375C26.2604 72.1094 26.0521 71.9167 25.7812 71.7969C25.5104 71.6719 25.1927 71.6094 24.8281 71.6094C24.401 71.6094 24.0443 71.6849 23.7578 71.8359C23.4714 71.987 23.2422 72.1953 23.0703 72.4609C22.8984 72.7266 22.7734 73.0312 22.6953 73.375C22.6224 73.7135 22.5859 74.0729 22.5859 74.4531ZM28.0625 73.6562L27.0938 73.9531C27.099 73.4896 27.1745 73.0443 27.3203 72.6172C27.4714 72.1901 27.6875 71.8099 27.9688 71.4766C28.2552 71.1432 28.6068 70.8802 29.0234 70.6875C29.4401 70.4896 29.9167 70.3906 30.4531 70.3906C30.9062 70.3906 31.3073 70.4505 31.6562 70.5703C32.0104 70.6901 32.3073 70.875 32.5469 71.125C32.7917 71.3698 32.9766 71.6849 33.1016 72.0703C33.2266 72.4557 33.2891 72.9141 33.2891 73.4453V79H31.8359V73.4297C31.8359 72.9557 31.7604 72.5885 31.6094 72.3281C31.4635 72.0625 31.2552 71.8776 30.9844 71.7734C30.7188 71.6641 30.401 71.6094 30.0312 71.6094C29.7135 71.6094 29.4323 71.6641 29.1875 71.7734C28.9427 71.8828 28.737 72.0339 28.5703 72.2266C28.4036 72.4141 28.276 72.6302 28.1875 72.875C28.1042 73.1198 28.0625 73.3802 28.0625 73.6562ZM39.4844 79.1562C38.8958 79.1562 38.362 79.0573 37.8828 78.8594C37.4089 78.6562 37 78.3724 36.6562 78.0078C36.3177 77.6432 36.0573 77.2109 35.875 76.7109C35.6927 76.2109 35.6016 75.6641 35.6016 75.0703V74.7422C35.6016 74.0547 35.7031 73.4427 35.9062 72.9062C36.1094 72.3646 36.3854 71.9062 36.7344 71.5312C37.0833 71.1562 37.4792 70.8724 37.9219 70.6797C38.3646 70.487 38.8229 70.3906 39.2969 70.3906C39.901 70.3906 40.4219 70.4948 40.8594 70.7031C41.3021 70.9115 41.6641 71.2031 41.9453 71.5781C42.2266 71.9479 42.4349 72.3854 42.5703 72.8906C42.7057 73.3906 42.7734 73.9375 42.7734 74.5312V75.1797H36.4609V74H41.3281V73.8906C41.3073 73.5156 41.2292 73.151 41.0938 72.7969C40.9635 72.4427 40.7552 72.151 40.4688 71.9219C40.1823 71.6927 39.7917 71.5781 39.2969 71.5781C38.9688 71.5781 38.6667 71.6484 38.3906 71.7891C38.1146 71.9245 37.8776 72.1276 37.6797 72.3984C37.4818 72.6693 37.3281 73 37.2188 73.3906C37.1094 73.7812 37.0547 74.2318 37.0547 74.7422V75.0703C37.0547 75.4714 37.1094 75.849 37.2188 76.2031C37.3333 76.5521 37.4974 76.8594 37.7109 77.125C37.9297 77.3906 38.1927 77.599 38.5 77.75C38.8125 77.901 39.1667 77.9766 39.5625 77.9766C40.0729 77.9766 40.5052 77.8724 40.8594 77.6641C41.2135 77.4557 41.5234 77.1771 41.7891 76.8281L42.6641 77.5234C42.4818 77.7995 42.25 78.0625 41.9688 78.3125C41.6875 78.5625 41.3411 78.7656 40.9297 78.9219C40.5234 79.0781 40.0417 79.1562 39.4844 79.1562ZM46.4062 71.875V79H44.9609V70.5469H46.3672L46.4062 71.875ZM49.0469 70.5L49.0391 71.8438C48.9193 71.8177 48.8047 71.8021 48.6953 71.7969C48.5911 71.7865 48.4714 71.7812 48.3359 71.7812C48.0026 71.7812 47.7083 71.8333 47.4531 71.9375C47.1979 72.0417 46.9818 72.1875 46.8047 72.375C46.6276 72.5625 46.487 72.7865 46.3828 73.0469C46.2839 73.3021 46.2188 73.5833 46.1875 73.8906L45.7812 74.125C45.7812 73.6146 45.8307 73.1354 45.9297 72.6875C46.0339 72.2396 46.1927 71.8438 46.4062 71.5C46.6198 71.151 46.8906 70.8802 47.2188 70.6875C47.5521 70.4896 47.9479 70.3906 48.4062 70.3906C48.5104 70.3906 48.6302 70.4036 48.7656 70.4297C48.901 70.4505 48.9948 70.474 49.0469 70.5ZM55.5547 77.5547V73.2031C55.5547 72.8698 55.487 72.5807 55.3516 72.3359C55.2214 72.0859 55.0234 71.8932 54.7578 71.7578C54.4922 71.6224 54.1641 71.5547 53.7734 71.5547C53.4089 71.5547 53.0885 71.6172 52.8125 71.7422C52.5417 71.8672 52.3281 72.0312 52.1719 72.2344C52.0208 72.4375 51.9453 72.6562 51.9453 72.8906H50.5C50.5 72.5885 50.5781 72.2891 50.7344 71.9922C50.8906 71.6953 51.1146 71.4271 51.4062 71.1875C51.7031 70.9427 52.0573 70.75 52.4688 70.6094C52.8854 70.4635 53.349 70.3906 53.8594 70.3906C54.474 70.3906 55.0156 70.4948 55.4844 70.7031C55.9583 70.9115 56.3281 71.2266 56.5938 71.6484C56.8646 72.0651 57 72.5885 57 73.2188V77.1562C57 77.4375 57.0234 77.737 57.0703 78.0547C57.1224 78.3724 57.1979 78.6458 57.2969 78.875V79H55.7891C55.7161 78.8333 55.6589 78.612 55.6172 78.3359C55.5755 78.0547 55.5547 77.7943 55.5547 77.5547ZM55.8047 73.875L55.8203 74.8906H54.3594C53.9479 74.8906 53.5807 74.9245 53.2578 74.9922C52.9349 75.0547 52.6641 75.151 52.4453 75.2812C52.2266 75.4115 52.0599 75.5755 51.9453 75.7734C51.8307 75.9661 51.7734 76.1927 51.7734 76.4531C51.7734 76.7188 51.8333 76.9609 51.9531 77.1797C52.0729 77.3984 52.2526 77.5729 52.4922 77.7031C52.737 77.8281 53.0365 77.8906 53.3906 77.8906C53.8333 77.8906 54.224 77.7969 54.5625 77.6094C54.901 77.4219 55.1693 77.1927 55.3672 76.9219C55.5703 76.651 55.6797 76.388 55.6953 76.1328L56.3125 76.8281C56.276 77.0469 56.1771 77.2891 56.0156 77.5547C55.8542 77.8203 55.638 78.0755 55.3672 78.3203C55.1016 78.5599 54.7839 78.7604 54.4141 78.9219C54.0495 79.0781 53.638 79.1562 53.1797 79.1562C52.6068 79.1562 52.1042 79.0443 51.6719 78.8203C51.2448 78.5964 50.9115 78.2969 50.6719 77.9219C50.4375 77.5417 50.3203 77.1172 50.3203 76.6484C50.3203 76.1953 50.4089 75.7969 50.5859 75.4531C50.763 75.1042 51.0182 74.8151 51.3516 74.5859C51.6849 74.3516 52.0859 74.1745 52.5547 74.0547C53.0234 73.9349 53.5469 73.875 54.125 73.875H55.8047ZM73.2188 72.9531V73.6719C73.2188 74.526 73.112 75.2917 72.8984 75.9688C72.6849 76.6458 72.3776 77.2214 71.9766 77.6953C71.5755 78.1693 71.0938 78.5312 70.5312 78.7812C69.974 79.0312 69.349 79.1562 68.6562 79.1562C67.9844 79.1562 67.3672 79.0312 66.8047 78.7812C66.2474 78.5312 65.763 78.1693 65.3516 77.6953C64.9453 77.2214 64.6302 76.6458 64.4062 75.9688C64.1823 75.2917 64.0703 74.526 64.0703 73.6719V72.9531C64.0703 72.099 64.1797 71.3359 64.3984 70.6641C64.6224 69.987 64.9375 69.4115 65.3438 68.9375C65.75 68.4583 66.2318 68.0938 66.7891 67.8438C67.3516 67.5938 67.9688 67.4688 68.6406 67.4688C69.3333 67.4688 69.9583 67.5938 70.5156 67.8438C71.0781 68.0938 71.5599 68.4583 71.9609 68.9375C72.3672 69.4115 72.6771 69.987 72.8906 70.6641C73.1094 71.3359 73.2188 72.099 73.2188 72.9531ZM71.7266 73.6719V72.9375C71.7266 72.2604 71.6562 71.6615 71.5156 71.1406C71.3802 70.6198 71.1797 70.1823 70.9141 69.8281C70.6484 69.474 70.3229 69.2057 69.9375 69.0234C69.5573 68.8411 69.125 68.75 68.6406 68.75C68.1719 68.75 67.7474 68.8411 67.3672 69.0234C66.9922 69.2057 66.6693 69.474 66.3984 69.8281C66.1328 70.1823 65.9271 70.6198 65.7812 71.1406C65.6354 71.6615 65.5625 72.2604 65.5625 72.9375V73.6719C65.5625 74.3542 65.6354 74.9583 65.7812 75.4844C65.9271 76.0052 66.1354 76.4453 66.4062 76.8047C66.6823 77.1589 67.0078 77.4271 67.3828 77.6094C67.763 77.7917 68.1875 77.8828 68.6562 77.8828C69.1458 77.8828 69.5807 77.7917 69.9609 77.6094C70.3411 77.4271 70.6615 77.1589 70.9219 76.8047C71.1875 76.4453 71.388 76.0052 71.5234 75.4844C71.6589 74.9583 71.7266 74.3542 71.7266 73.6719ZM77.9141 79H76.4688V69.6562C76.4688 69.0469 76.5781 68.5339 76.7969 68.1172C77.0208 67.6953 77.3411 67.3776 77.7578 67.1641C78.1745 66.9453 78.6693 66.8359 79.2422 66.8359C79.4089 66.8359 79.5755 66.8464 79.7422 66.8672C79.9141 66.888 80.0807 66.9193 80.2422 66.9609L80.1641 68.1406C80.0547 68.1146 79.9297 68.0964 79.7891 68.0859C79.6536 68.0755 79.5182 68.0703 79.3828 68.0703C79.0755 68.0703 78.8099 68.1328 78.5859 68.2578C78.3672 68.3776 78.2005 68.5547 78.0859 68.7891C77.9714 69.0234 77.9141 69.3125 77.9141 69.6562V79ZM79.7109 70.5469V71.6562H75.1328V70.5469H79.7109ZM83.9766 79H82.5312V69.6562C82.5312 69.0469 82.6406 68.5339 82.8594 68.1172C83.0833 67.6953 83.4036 67.3776 83.8203 67.1641C84.237 66.9453 84.7318 66.8359 85.3047 66.8359C85.4714 66.8359 85.638 66.8464 85.8047 66.8672C85.9766 66.888 86.1432 66.9193 86.3047 66.9609L86.2266 68.1406C86.1172 68.1146 85.9922 68.0964 85.8516 68.0859C85.7161 68.0755 85.5807 68.0703 85.4453 68.0703C85.138 68.0703 84.8724 68.1328 84.6484 68.2578C84.4297 68.3776 84.263 68.5547 84.1484 68.7891C84.0339 69.0234 83.9766 69.3125 83.9766 69.6562V79ZM85.7734 70.5469V71.6562H81.1953V70.5469H85.7734Z" fill="white" fill-opacity="0.6"/>
</svg>
