<svg width="52" height="52" viewBox="0 0 52 52" fill="none" xmlns="http://www.w3.org/2000/svg">
<mask id="mask0_55283_65480" style="mask-type:alpha" maskUnits="userSpaceOnUse" x="0" y="0" width="52" height="52">
<rect width="52" height="52" fill="#D9D9D9"/>
</mask>
<g mask="url(#mask0_55283_65480)">
<path d="M46.2042 40.03L12.675 6.50085H43.3333C44.525 6.50085 45.5455 6.92479 46.3948 7.77268C47.2427 8.62201 47.6667 9.64251 47.6667 10.8342V36.8342C47.6667 37.4842 47.5489 38.0706 47.3135 38.5935C47.0795 39.1178 46.7097 39.5967 46.2042 40.03ZM6.87917 6.88001V12.9467L3.03333 9.10085C2.63611 8.70362 2.4375 8.19807 2.4375 7.58418C2.4375 6.97029 2.63611 6.46473 3.03333 6.06751C3.43056 5.67029 3.93611 5.47168 4.55 5.47168C5.16389 5.47168 5.66944 5.67029 6.06667 6.06751L45.9333 45.9342C46.3306 46.3314 46.5292 46.837 46.5292 47.4508C46.5292 48.0647 46.3306 48.5703 45.9333 48.9675C45.5361 49.3647 45.0306 49.5633 44.4167 49.5633C43.8028 49.5633 43.2972 49.3647 42.9 48.9675L35.1 41.1675H34.6667V43.3342C34.6667 43.9481 34.4594 44.4623 34.0448 44.8768C33.6288 45.2928 33.1139 45.5008 32.5 45.5008H19.5C18.8861 45.5008 18.3719 45.2928 17.9573 44.8768C17.5413 44.4623 17.3333 43.9481 17.3333 43.3342V41.1675H8.66667C7.475 41.1675 6.45522 40.7436 5.60733 39.8957C4.758 39.0463 4.33333 38.0258 4.33333 36.8342V10.8342C4.33333 9.49807 4.758 8.50501 5.60733 7.85501L6.87917 6.88001Z" fill="white"/>
</g>
</svg>
