<svg width="46" height="45" viewBox="0 0 46 45" fill="none" xmlns="http://www.w3.org/2000/svg">
<path d="M44.2042 35.03L10.675 1.50085H41.3333C42.525 1.50085 43.5455 1.92479 44.3948 2.77268C45.2427 3.62201 45.6667 4.64251 45.6667 5.83418V31.8342C45.6667 32.4842 45.5489 33.0706 45.3135 33.5935C45.0795 34.1178 44.7097 34.5967 44.2042 35.03ZM4.87917 1.88001V7.94668L1.03333 4.10085C0.636111 3.70362 0.4375 3.19807 0.4375 2.58418C0.4375 1.97029 0.636111 1.46473 1.03333 1.06751C1.43056 0.67029 1.93611 0.47168 2.55 0.47168C3.16389 0.47168 3.66944 0.67029 4.06667 1.06751L43.9333 40.9342C44.3306 41.3314 44.5292 41.837 44.5292 42.4508C44.5292 43.0647 44.3306 43.5703 43.9333 43.9675C43.5361 44.3647 43.0306 44.5634 42.4167 44.5634C41.8028 44.5634 41.2972 44.3647 40.9 43.9675L33.1 36.1675H32.6667V38.3342C32.6667 38.9481 32.4594 39.4623 32.0448 39.8769C31.6288 40.2928 31.1139 40.5008 30.5 40.5008H17.5C16.8861 40.5008 16.3719 40.2928 15.9573 39.8769C15.5413 39.4623 15.3333 38.9481 15.3333 38.3342V36.1675H6.66667C5.475 36.1675 4.45522 35.7436 3.60733 34.8957C2.758 34.0463 2.33333 33.0258 2.33333 31.8342V5.83418C2.33333 4.49807 2.758 3.50501 3.60733 2.85501L4.87917 1.88001Z" fill="white" fill-opacity="0.6"/>
</svg>
